<svg xmlns="http://www.w3.org/2000/svg" version="1.1" xlink="http://www.w3.org/1999/xlink" width="100%" height="100%" viewBox="0 0 99.99906921386719 100"><path d="M10.742 3.906v92.188c0 1.035.41 2.031 1.145 2.762A3.896 3.896 0 0 0 14.648 100h8.79V0h-8.79a3.908 3.908 0 0 0-3.906 3.907zM0 9.277v11.72c0 .808.656 1.464 1.465 1.464h6.348V7.813H1.465C.656 7.813 0 8.47 0 9.278zM0 32.52v11.719c0 .809.656 1.465 1.465 1.465h6.348V31.056H1.465C.656 31.056 0 31.712 0 32.52zm0 23.242v11.719c0 .809.656 1.465 1.465 1.465h6.348V54.298H1.465c-.809 0-1.465.656-1.465 1.465zm0 23.242v11.719c0 .809.656 1.465 1.465 1.465h6.348V77.54H1.465C.656 77.54 0 78.196 0 79.005zm96.266-58.996l3.578-7.156a1.466 1.466 0 0 0-1.309-2.11H85.937v18.555h12.598a1.47 1.47 0 0 0 1.247-.695 1.47 1.47 0 0 0 .062-1.426zM26.367 100h56.641V0H26.367zm10.688-87.641a5.523 5.523 0 0 1 5.234-2.563l2.59.266.004-.004a2.844 2.844 0 0 1 2.445 2.028l2.735 9.19a2.854 2.854 0 0 1-.684 2.806l-2.375 2.453c.848 2.18 3.504 5.234 4.582 6.351 1.117 1.078 4.172 3.735 6.352 4.578l2.453-2.375v.004a2.863 2.863 0 0 1 2.805-.687l9.195 2.734h-.004a2.843 2.843 0 0 1 2.027 2.453l.266 2.594a5.544 5.544 0 0 1-2.563 5.238 15.884 15.884 0 0 1-8.398 2.387c-.73-.004-1.453-.05-2.176-.14-5.508-.708-11.148-4.063-16.773-9.961-5.906-5.625-9.258-11.27-9.96-16.773v-.004a15.903 15.903 0 0 1 2.245-10.574zm-4.34 48.676a4.401 4.401 0 0 1 4.395-4.394h35.156a4.401 4.401 0 0 1 4.394 4.394v26.758a4.401 4.401 0 0 1-4.394 4.394H37.11a4.401 4.401 0 0 1-4.395-4.394z"></path><path d="M73.73 61.035a1.47 1.47 0 0 0-1.465-1.465H37.11c-.808 0-1.465.656-1.465 1.465v3.418H73.73zM46.82 37.598l.055.055c11.438 12.03 19.758 9.726 23.695 7.28v-.003a2.588 2.588 0 0 0 1.195-2.45l-.258-2.538-9.11-2.715-3.038 2.941a1.46 1.46 0 0 1-1.309.39c-3.406-.694-8.008-5.077-8.523-5.573l-.032-.032c-.496-.515-4.882-5.117-5.578-8.519h.004a1.466 1.466 0 0 1 .39-1.313l2.934-3.05-2.714-9.102-2.54-.258a2.587 2.587 0 0 0-2.453 1.192c-2.43 3.941-4.742 12.254 7.282 23.695zm-9.711 51.66h35.156a1.47 1.47 0 0 0 1.465-1.465v-20.41H35.644v20.41c0 .809.656 1.465 1.465 1.465zm12.695-16.309h17.578a1.465 1.465 0 0 1 0 2.93H49.804a1.465 1.465 0 0 1 0-2.93zm-7.813 0h1.954a1.465 1.465 0 0 1 0 2.93h-1.953a1.465 1.465 0 0 1 0-2.93zm0 7.813h25.392a1.465 1.465 0 0 1 0 2.93H41.99a1.465 1.465 0 0 1 0-2.93z"></path></svg>